<svg width="25" height="25" viewBox="0 0 25 25" fill="none" xmlns="http://www.w3.org/2000/svg">
<path d="M24.6405 22.6275L22.8565 17.5H20.8988L21.986 22.5H2.84546L3.9326 17.5H1.97496L0.189592 22.6275C-0.263276 23.9325 0.539357 25 1.97496 25H22.8565C24.2921 25 25.0947 23.9325 24.6405 22.6275ZM18.9412 6.25C18.9412 4.5924 18.2537 3.00269 17.0299 1.83058C15.8062 0.65848 14.1464 0 12.4157 0C10.6851 0 9.02527 0.65848 7.80151 1.83058C6.57775 3.00269 5.89024 4.5924 5.89024 6.25C5.89024 12.2188 12.4157 18.75 12.4157 18.75C12.4157 18.75 18.9412 12.2188 18.9412 6.25ZM8.89196 6.325C8.89196 4.46125 10.4685 2.95125 12.4157 2.95125C13.3501 2.95125 14.2462 3.30676 14.9069 3.93958C15.5676 4.5724 15.9388 5.43069 15.9388 6.32563C15.9388 7.22056 15.5676 8.07885 14.9069 8.71167C14.2462 9.34449 13.3501 9.7 12.4157 9.7C11.4812 9.7 10.5849 9.34442 9.92404 8.71148C9.26321 8.07855 8.89196 7.22011 8.89196 6.325Z" fill="white"/>
</svg>
