<svg width="313" height="62" viewBox="0 0 313 62" fill="none" xmlns="http://www.w3.org/2000/svg">
<rect y="0.914551" width="312.139" height="60.427" fill="#DA0F33"/>
<path d="M47.415 40V21.5156H53.8896C56.1325 21.5156 57.8337 21.9473 58.9932 22.8105C60.1527 23.6654 60.7324 24.9222 60.7324 26.5811C60.7324 27.4867 60.4997 28.2865 60.0342 28.9805C59.5687 29.666 58.9212 30.1696 58.0918 30.4912C59.0397 30.7282 59.7845 31.2064 60.3262 31.9258C60.8763 32.6452 61.1514 33.5254 61.1514 34.5664C61.1514 36.3438 60.5843 37.6895 59.4502 38.6035C58.3161 39.5176 56.6995 39.9831 54.6006 40H47.415ZM51.2236 31.9512V36.9404H54.4863C55.3835 36.9404 56.0817 36.7288 56.5811 36.3057C57.0889 35.874 57.3428 35.2816 57.3428 34.5283C57.3428 32.8356 56.4668 31.9766 54.7148 31.9512H51.2236ZM51.2236 29.2598H54.042C55.9632 29.2259 56.9238 28.46 56.9238 26.9619C56.9238 26.124 56.6784 25.5231 56.1875 25.1592C55.7051 24.7868 54.9391 24.6006 53.8896 24.6006H51.2236V29.2598ZM63.208 33.0049C63.208 31.6423 63.4704 30.4277 63.9951 29.3613C64.5199 28.2949 65.2731 27.4697 66.2549 26.8857C67.2451 26.3018 68.3919 26.0098 69.6953 26.0098C71.5488 26.0098 73.0596 26.5768 74.2275 27.7109C75.404 28.8451 76.0599 30.3854 76.1953 32.332L76.2207 33.2715C76.2207 35.3789 75.6325 37.0716 74.4561 38.3496C73.2796 39.6191 71.7012 40.2539 69.7207 40.2539C67.7402 40.2539 66.1576 39.6191 64.9727 38.3496C63.7962 37.0801 63.208 35.3535 63.208 33.1699V33.0049ZM66.877 33.2715C66.877 34.5749 67.1224 35.5736 67.6133 36.2676C68.1042 36.9531 68.8066 37.2959 69.7207 37.2959C70.6094 37.2959 71.3034 36.9574 71.8027 36.2803C72.3021 35.5947 72.5518 34.5029 72.5518 33.0049C72.5518 31.7269 72.3021 30.7367 71.8027 30.0342C71.3034 29.3317 70.6009 28.9805 69.6953 28.9805C68.7982 28.9805 68.1042 29.3317 67.6133 30.0342C67.1224 30.7282 66.877 31.8073 66.877 33.2715ZM77.9092 33.0049C77.9092 31.6423 78.1715 30.4277 78.6963 29.3613C79.221 28.2949 79.9743 27.4697 80.9561 26.8857C81.9463 26.3018 83.0931 26.0098 84.3965 26.0098C86.25 26.0098 87.7607 26.5768 88.9287 27.7109C90.1051 28.8451 90.7611 30.3854 90.8965 32.332L90.9219 33.2715C90.9219 35.3789 90.3337 37.0716 89.1572 38.3496C87.9808 39.6191 86.4023 40.2539 84.4219 40.2539C82.4414 40.2539 80.8587 39.6191 79.6738 38.3496C78.4974 37.0801 77.9092 35.3535 77.9092 33.1699V33.0049ZM81.5781 33.2715C81.5781 34.5749 81.8236 35.5736 82.3145 36.2676C82.8053 36.9531 83.5078 37.2959 84.4219 37.2959C85.3105 37.2959 86.0046 36.9574 86.5039 36.2803C87.0033 35.5947 87.2529 34.5029 87.2529 33.0049C87.2529 31.7269 87.0033 30.7367 86.5039 30.0342C86.0046 29.3317 85.3021 28.9805 84.3965 28.9805C83.4993 28.9805 82.8053 29.3317 82.3145 30.0342C81.8236 30.7282 81.5781 31.8073 81.5781 33.2715ZM98.1709 34.4902L96.8506 35.8105V40H93.1816V20.5H96.8506V31.3037L97.5615 30.3896L101.078 26.2637H105.483L100.52 31.9893L105.915 40H101.7L98.1709 34.4902ZM124.222 36.1914H117.544L116.274 40H112.225L119.105 21.5156H122.635L129.554 40H125.504L124.222 36.1914ZM118.572 33.1064H123.193L120.87 26.1875L118.572 33.1064ZM142.795 33.2588C142.795 35.3747 142.312 37.0716 141.348 38.3496C140.391 39.6191 139.096 40.2539 137.463 40.2539C136.075 40.2539 134.953 39.7715 134.099 38.8066V45.2812H130.43V26.2637H133.832L133.959 27.6094C134.848 26.543 136.007 26.0098 137.438 26.0098C139.13 26.0098 140.446 26.6361 141.386 27.8887C142.325 29.1413 142.795 30.8678 142.795 33.0684V33.2588ZM139.126 32.9922C139.126 31.7142 138.897 30.7282 138.44 30.0342C137.992 29.3402 137.336 28.9932 136.473 28.9932C135.322 28.9932 134.53 29.4333 134.099 30.3135V35.9375C134.547 36.8431 135.347 37.2959 136.498 37.2959C138.25 37.2959 139.126 35.8613 139.126 32.9922ZM157.445 33.2588C157.445 35.3747 156.963 37.0716 155.998 38.3496C155.042 39.6191 153.747 40.2539 152.113 40.2539C150.725 40.2539 149.604 39.7715 148.749 38.8066V45.2812H145.08V26.2637H148.482L148.609 27.6094C149.498 26.543 150.658 26.0098 152.088 26.0098C153.781 26.0098 155.097 26.6361 156.036 27.8887C156.976 29.1413 157.445 30.8678 157.445 33.0684V33.2588ZM153.776 32.9922C153.776 31.7142 153.548 30.7282 153.091 30.0342C152.642 29.3402 151.986 28.9932 151.123 28.9932C149.972 28.9932 149.181 29.4333 148.749 30.3135V35.9375C149.198 36.8431 149.997 37.2959 151.148 37.2959C152.9 37.2959 153.776 35.8613 153.776 32.9922ZM159.159 33.0049C159.159 31.6423 159.422 30.4277 159.946 29.3613C160.471 28.2949 161.224 27.4697 162.206 26.8857C163.196 26.3018 164.343 26.0098 165.646 26.0098C167.5 26.0098 169.011 26.5768 170.179 27.7109C171.355 28.8451 172.011 30.3854 172.146 32.332L172.172 33.2715C172.172 35.3789 171.584 37.0716 170.407 38.3496C169.231 39.6191 167.652 40.2539 165.672 40.2539C163.691 40.2539 162.109 39.6191 160.924 38.3496C159.747 37.0801 159.159 35.3535 159.159 33.1699V33.0049ZM162.828 33.2715C162.828 34.5749 163.074 35.5736 163.564 36.2676C164.055 36.9531 164.758 37.2959 165.672 37.2959C166.561 37.2959 167.255 36.9574 167.754 36.2803C168.253 35.5947 168.503 34.5029 168.503 33.0049C168.503 31.7269 168.253 30.7367 167.754 30.0342C167.255 29.3317 166.552 28.9805 165.646 28.9805C164.749 28.9805 164.055 29.3317 163.564 30.0342C163.074 30.7282 162.828 31.8073 162.828 33.2715ZM178.304 40H174.622V26.2637H178.304V40ZM174.406 22.709C174.406 22.1589 174.588 21.7061 174.952 21.3506C175.325 20.9951 175.828 20.8174 176.463 20.8174C177.089 20.8174 177.589 20.9951 177.961 21.3506C178.333 21.7061 178.52 22.1589 178.52 22.709C178.52 23.2676 178.329 23.7246 177.948 24.0801C177.576 24.4355 177.081 24.6133 176.463 24.6133C175.845 24.6133 175.346 24.4355 174.965 24.0801C174.592 23.7246 174.406 23.2676 174.406 22.709ZM184.715 26.2637L184.829 27.8506C185.811 26.6234 187.127 26.0098 188.777 26.0098C190.233 26.0098 191.316 26.4372 192.027 27.292C192.738 28.1468 193.102 29.4248 193.119 31.126V40H189.45V31.2148C189.45 30.4362 189.281 29.8734 188.942 29.5264C188.604 29.1709 188.041 28.9932 187.254 28.9932C186.221 28.9932 185.447 29.4333 184.931 30.3135V40H181.262V26.2637H184.715ZM200.305 22.8867V26.2637H202.653V28.9551H200.305V35.8105C200.305 36.3184 200.402 36.6823 200.597 36.9023C200.791 37.1224 201.164 37.2324 201.714 37.2324C202.12 37.2324 202.48 37.2028 202.793 37.1436V39.9238C202.074 40.1439 201.333 40.2539 200.571 40.2539C197.998 40.2539 196.687 38.9548 196.636 36.3564V28.9551H194.63V26.2637H196.636V22.8867H200.305ZM208.138 26.2637L208.252 27.7998C209.225 26.6064 210.541 26.0098 212.2 26.0098C213.969 26.0098 215.184 26.708 215.844 28.1045C216.809 26.708 218.184 26.0098 219.97 26.0098C221.459 26.0098 222.568 26.4456 223.296 27.3174C224.024 28.1807 224.388 29.484 224.388 31.2275V40H220.706V31.2402C220.706 30.4616 220.554 29.8945 220.249 29.5391C219.944 29.1751 219.407 28.9932 218.637 28.9932C217.536 28.9932 216.775 29.5179 216.352 30.5674L216.364 40H212.695V31.2529C212.695 30.4574 212.539 29.8818 212.226 29.5264C211.912 29.1709 211.379 28.9932 210.626 28.9932C209.585 28.9932 208.832 29.4248 208.366 30.2881V40H204.697V26.2637H208.138ZM233.541 40.2539C231.527 40.2539 229.885 39.6361 228.615 38.4004C227.354 37.1647 226.724 35.5186 226.724 33.4619V33.1064C226.724 31.7269 226.99 30.4954 227.523 29.4121C228.057 28.3203 228.81 27.4824 229.783 26.8984C230.765 26.306 231.882 26.0098 233.135 26.0098C235.014 26.0098 236.491 26.6022 237.565 27.7871C238.649 28.972 239.19 30.652 239.19 32.8271V34.3252H230.443C230.562 35.2223 230.917 35.9417 231.51 36.4834C232.111 37.0251 232.868 37.2959 233.782 37.2959C235.196 37.2959 236.3 36.7839 237.096 35.7598L238.898 37.7783C238.348 38.557 237.604 39.1663 236.664 39.6064C235.725 40.0381 234.684 40.2539 233.541 40.2539ZM233.122 28.9805C232.394 28.9805 231.802 29.2259 231.345 29.7168C230.896 30.2077 230.608 30.9102 230.481 31.8242H235.585V31.5322C235.568 30.7197 235.348 30.0934 234.925 29.6533C234.502 29.2048 233.901 28.9805 233.122 28.9805ZM244.662 26.2637L244.776 27.8506C245.758 26.6234 247.074 26.0098 248.725 26.0098C250.18 26.0098 251.264 26.4372 251.975 27.292C252.686 28.1468 253.049 29.4248 253.066 31.126V40H249.397V31.2148C249.397 30.4362 249.228 29.8734 248.89 29.5264C248.551 29.1709 247.988 28.9932 247.201 28.9932C246.169 28.9932 245.394 29.4333 244.878 30.3135V40H241.209V26.2637H244.662ZM260.252 22.8867V26.2637H262.601V28.9551H260.252V35.8105C260.252 36.3184 260.349 36.6823 260.544 36.9023C260.739 37.1224 261.111 37.2324 261.661 37.2324C262.067 37.2324 262.427 37.2028 262.74 37.1436V39.9238C262.021 40.1439 261.28 40.2539 260.519 40.2539C257.946 40.2539 256.634 38.9548 256.583 36.3564V28.9551H254.577V26.2637H256.583V22.8867H260.252Z" fill="white"/>
</svg>
