<svg width="304" height="48" viewBox="0 0 304 48" fill="none" xmlns="http://www.w3.org/2000/svg">
<rect width="303.24" height="47.7037" fill="#1F252A"/>
<path d="M60.5887 26.4377C60.3778 28.2424 59.7098 29.637 58.5848 30.6213C57.4677 31.5979 55.9794 32.0862 54.12 32.0862C52.1044 32.0862 50.4872 31.3635 49.2684 29.9182C48.0575 28.4729 47.452 26.5393 47.452 24.1174V22.4768C47.452 20.8909 47.7333 19.4963 48.2958 18.2932C48.8661 17.0901 49.6708 16.1682 50.7098 15.5276C51.7489 14.8792 52.952 14.5549 54.3192 14.5549C56.1317 14.5549 57.5848 15.0627 58.6786 16.0784C59.7723 17.0862 60.4091 18.4846 60.5887 20.2737H58.327C58.1317 18.9143 57.7059 17.9299 57.0497 17.3206C56.4012 16.7112 55.4911 16.4065 54.3192 16.4065C52.8817 16.4065 51.7528 16.9377 50.9325 18.0002C50.12 19.0627 49.7137 20.5745 49.7137 22.5354V24.1877C49.7137 26.0393 50.1005 27.512 50.8739 28.6057C51.6473 29.6995 52.7294 30.2463 54.12 30.2463C55.37 30.2463 56.327 29.9651 56.9911 29.4026C57.663 28.8323 58.1083 27.844 58.327 26.4377H60.5887ZM65.6864 31.8518H63.5184V13.8518H65.6864V31.8518ZM76.995 31.8518C76.87 31.6018 76.7684 31.1565 76.6903 30.5159C75.6825 31.5627 74.4794 32.0862 73.0809 32.0862C71.8309 32.0862 70.8036 31.7346 69.9989 31.0315C69.202 30.3206 68.8036 29.4221 68.8036 28.3362C68.8036 27.0159 69.3036 25.9924 70.3036 25.2659C71.3114 24.5315 72.7255 24.1643 74.5458 24.1643H76.6552V23.1682C76.6552 22.4104 76.4286 21.8088 75.9755 21.3635C75.5223 20.9104 74.8544 20.6838 73.9716 20.6838C73.1981 20.6838 72.5497 20.8792 72.0262 21.2698C71.5028 21.6604 71.2411 22.1331 71.2411 22.6877H69.0614C69.0614 22.0549 69.2841 21.4456 69.7294 20.8596C70.1825 20.2659 70.7919 19.7971 71.5575 19.4534C72.3309 19.1096 73.1786 18.9377 74.1005 18.9377C75.5614 18.9377 76.7059 19.3049 77.5341 20.0393C78.3622 20.7659 78.7919 21.7698 78.8231 23.051V28.887C78.8231 30.051 78.9716 30.9768 79.2684 31.6643V31.8518H76.995ZM73.3973 30.1995C74.077 30.1995 74.7216 30.0237 75.3309 29.6721C75.9403 29.3206 76.3817 28.8635 76.6552 28.301V25.6995H74.9559C72.2997 25.6995 70.9716 26.4768 70.9716 28.0315C70.9716 28.7112 71.1981 29.2424 71.6512 29.6252C72.1044 30.0081 72.6864 30.1995 73.3973 30.1995ZM89.6044 28.4885C89.6044 27.9026 89.3817 27.4495 88.9364 27.1292C88.4989 26.801 87.7294 26.5198 86.6278 26.2854C85.5341 26.051 84.663 25.7698 84.0145 25.4417C83.3739 25.1135 82.8973 24.7229 82.5848 24.2698C82.2802 23.8167 82.1278 23.2776 82.1278 22.6526C82.1278 21.6135 82.5653 20.7346 83.4403 20.0159C84.3231 19.2971 85.4481 18.9377 86.8153 18.9377C88.2528 18.9377 89.4169 19.3088 90.3075 20.051C91.2059 20.7932 91.6552 21.7424 91.6552 22.8987H89.4755C89.4755 22.3049 89.2216 21.7932 88.7137 21.3635C88.2137 20.9338 87.5809 20.719 86.8153 20.719C86.0262 20.719 85.4091 20.8909 84.9637 21.2346C84.5184 21.5784 84.2958 22.0276 84.2958 22.5823C84.2958 23.1057 84.5028 23.5002 84.9169 23.7659C85.3309 24.0315 86.077 24.2854 87.1552 24.5276C88.2411 24.7698 89.12 25.0588 89.7919 25.3948C90.4637 25.7307 90.9598 26.137 91.2802 26.6135C91.6083 27.0823 91.7723 27.6565 91.7723 28.3362C91.7723 29.469 91.3192 30.3792 90.413 31.0667C89.5067 31.7463 88.3309 32.0862 86.8856 32.0862C85.87 32.0862 84.9716 31.9065 84.1903 31.5471C83.4091 31.1877 82.7958 30.6877 82.3505 30.0471C81.913 29.3987 81.6942 28.6995 81.6942 27.9495H83.8622C83.9012 28.676 84.1903 29.2542 84.7294 29.6838C85.2762 30.1057 85.995 30.3167 86.8856 30.3167C87.7059 30.3167 88.3622 30.1526 88.8544 29.8245C89.3544 29.4885 89.6044 29.0432 89.6044 28.4885ZM101.979 28.4885C101.979 27.9026 101.757 27.4495 101.311 27.1292C100.874 26.801 100.104 26.5198 99.0028 26.2854C97.9091 26.051 97.038 25.7698 96.3895 25.4417C95.7489 25.1135 95.2723 24.7229 94.9598 24.2698C94.6552 23.8167 94.5028 23.2776 94.5028 22.6526C94.5028 21.6135 94.9403 20.7346 95.8153 20.0159C96.6981 19.2971 97.8231 18.9377 99.1903 18.9377C100.628 18.9377 101.792 19.3088 102.682 20.051C103.581 20.7932 104.03 21.7424 104.03 22.8987H101.85C101.85 22.3049 101.597 21.7932 101.089 21.3635C100.589 20.9338 99.9559 20.719 99.1903 20.719C98.4012 20.719 97.7841 20.8909 97.3387 21.2346C96.8934 21.5784 96.6708 22.0276 96.6708 22.5823C96.6708 23.1057 96.8778 23.5002 97.2919 23.7659C97.7059 24.0315 98.452 24.2854 99.5302 24.5276C100.616 24.7698 101.495 25.0588 102.167 25.3948C102.839 25.7307 103.335 26.137 103.655 26.6135C103.983 27.0823 104.147 27.6565 104.147 28.3362C104.147 29.469 103.694 30.3792 102.788 31.0667C101.882 31.7463 100.706 32.0862 99.2606 32.0862C98.245 32.0862 97.3466 31.9065 96.5653 31.5471C95.7841 31.1877 95.1708 30.6877 94.7255 30.0471C94.288 29.3987 94.0692 28.6995 94.0692 27.9495H96.2372C96.2762 28.676 96.5653 29.2542 97.1044 29.6838C97.6512 30.1057 98.37 30.3167 99.2606 30.3167C100.081 30.3167 100.737 30.1526 101.229 29.8245C101.729 29.4885 101.979 29.0432 101.979 28.4885ZM109.327 31.8518H107.159V19.1721H109.327V31.8518ZM106.983 15.8088C106.983 15.4573 107.089 15.1604 107.3 14.9182C107.518 14.676 107.839 14.5549 108.261 14.5549C108.682 14.5549 109.003 14.676 109.222 14.9182C109.44 15.1604 109.55 15.4573 109.55 15.8088C109.55 16.1604 109.44 16.4534 109.222 16.6877C109.003 16.9221 108.682 17.0393 108.261 17.0393C107.839 17.0393 107.518 16.9221 107.3 16.6877C107.089 16.4534 106.983 16.1604 106.983 15.8088ZM117.893 30.3167C118.667 30.3167 119.343 30.0823 119.921 29.6135C120.499 29.1448 120.819 28.5588 120.882 27.8557H122.932C122.893 28.5823 122.643 29.2737 122.182 29.9299C121.722 30.5862 121.104 31.1096 120.331 31.5002C119.565 31.8909 118.753 32.0862 117.893 32.0862C116.167 32.0862 114.792 31.512 113.768 30.3635C112.753 29.2073 112.245 27.6292 112.245 25.6292V25.2659C112.245 24.0315 112.472 22.9338 112.925 21.9729C113.378 21.012 114.026 20.2659 114.87 19.7346C115.722 19.2034 116.725 18.9377 117.882 18.9377C119.304 18.9377 120.483 19.3635 121.421 20.2151C122.366 21.0667 122.87 22.1721 122.932 23.5315H120.882C120.819 22.7112 120.507 22.0393 119.944 21.5159C119.39 20.9846 118.702 20.719 117.882 20.719C116.78 20.719 115.925 21.1174 115.315 21.9143C114.714 22.7034 114.413 23.8479 114.413 25.3479V25.7581C114.413 27.219 114.714 28.344 115.315 29.1331C115.917 29.9221 116.776 30.3167 117.893 30.3167ZM131.663 31.8518V14.7893H137.241C139.093 14.7893 140.483 15.1721 141.413 15.9377C142.35 16.7034 142.819 17.8362 142.819 19.3362C142.819 20.1331 142.593 20.8401 142.14 21.4573C141.686 22.0667 141.069 22.5393 140.288 22.8752C141.21 23.1331 141.936 23.6252 142.468 24.3518C143.007 25.0706 143.276 25.9299 143.276 26.9299C143.276 28.4612 142.78 29.6643 141.788 30.5393C140.796 31.4143 139.393 31.8518 137.581 31.8518H131.663ZM133.913 23.8713V30.012H137.628C138.675 30.012 139.499 29.7424 140.1 29.2034C140.71 28.6565 141.015 27.9065 141.015 26.9534C141.015 24.8987 139.897 23.8713 137.663 23.8713H133.913ZM133.913 22.0667H137.311C138.296 22.0667 139.081 21.8206 139.667 21.3284C140.261 20.8362 140.557 20.1682 140.557 19.3245C140.557 18.387 140.284 17.7073 139.737 17.2854C139.19 16.8557 138.358 16.6409 137.241 16.6409H133.913V22.0667ZM145.702 25.3948C145.702 24.1526 145.944 23.0354 146.429 22.0432C146.921 21.051 147.6 20.2854 148.468 19.7463C149.343 19.2073 150.339 18.9377 151.456 18.9377C153.182 18.9377 154.577 19.5354 155.64 20.7307C156.71 21.926 157.245 23.5159 157.245 25.5002V25.6526C157.245 26.887 157.007 27.9963 156.53 28.9807C156.061 29.9573 155.386 30.719 154.503 31.2659C153.628 31.8127 152.62 32.0862 151.479 32.0862C149.761 32.0862 148.366 31.4885 147.296 30.2932C146.233 29.0979 145.702 27.5159 145.702 25.5471V25.3948ZM147.882 25.6526C147.882 27.0588 148.206 28.1877 148.854 29.0393C149.511 29.8909 150.386 30.3167 151.479 30.3167C152.581 30.3167 153.456 29.887 154.104 29.0276C154.753 28.1604 155.077 26.9495 155.077 25.3948C155.077 24.0042 154.745 22.8792 154.081 22.0198C153.425 21.1526 152.55 20.719 151.456 20.719C150.386 20.719 149.522 21.1448 148.866 21.9963C148.21 22.8479 147.882 24.0667 147.882 25.6526ZM162.319 31.8518H160.151V13.8518H162.319V31.8518ZM165.272 25.4065C165.272 23.4612 165.733 21.8987 166.655 20.719C167.577 19.5315 168.784 18.9377 170.276 18.9377C171.761 18.9377 172.936 19.4456 173.804 20.4612V13.8518H175.972V31.8518H173.979L173.874 30.4924C173.007 31.5549 171.8 32.0862 170.253 32.0862C168.784 32.0862 167.585 31.4846 166.655 30.2815C165.733 29.0784 165.272 27.5081 165.272 25.5706V25.4065ZM167.44 25.6526C167.44 27.0901 167.737 28.2151 168.331 29.0276C168.925 29.8401 169.745 30.2463 170.792 30.2463C172.167 30.2463 173.171 29.6292 173.804 28.3948V22.5706C173.155 21.3752 172.159 20.7776 170.815 20.7776C169.753 20.7776 168.925 21.1877 168.331 22.0081C167.737 22.8284 167.44 24.0432 167.44 25.6526ZM198.237 29.6135C197.659 30.4417 196.85 31.0627 195.811 31.4768C194.78 31.8831 193.577 32.0862 192.202 32.0862C190.811 32.0862 189.577 31.762 188.499 31.1135C187.421 30.4573 186.585 29.5276 185.991 28.3245C185.405 27.1213 185.104 25.7268 185.089 24.1409V22.6526C185.089 20.0823 185.686 18.0901 186.882 16.676C188.085 15.262 189.772 14.5549 191.944 14.5549C193.725 14.5549 195.159 15.012 196.245 15.926C197.331 16.8323 197.995 18.1213 198.237 19.7932H195.987C195.565 17.5354 194.222 16.4065 191.956 16.4065C190.448 16.4065 189.304 16.9377 188.522 18.0002C187.749 19.0549 187.358 20.5862 187.35 22.594V23.9885C187.35 25.9026 187.788 27.426 188.663 28.5588C189.538 29.6838 190.722 30.2463 192.214 30.2463C193.057 30.2463 193.796 30.1526 194.429 29.9651C195.061 29.7776 195.585 29.4612 195.999 29.0159V25.1838H192.05V23.3557H198.237V29.6135ZM209.487 31.8518C209.362 31.6018 209.261 31.1565 209.182 30.5159C208.175 31.5627 206.972 32.0862 205.573 32.0862C204.323 32.0862 203.296 31.7346 202.491 31.0315C201.694 30.3206 201.296 29.4221 201.296 28.3362C201.296 27.0159 201.796 25.9924 202.796 25.2659C203.804 24.5315 205.218 24.1643 207.038 24.1643H209.147V23.1682C209.147 22.4104 208.921 21.8088 208.468 21.3635C208.015 20.9104 207.347 20.6838 206.464 20.6838C205.69 20.6838 205.042 20.8792 204.518 21.2698C203.995 21.6604 203.733 22.1331 203.733 22.6877H201.554C201.554 22.0549 201.776 21.4456 202.222 20.8596C202.675 20.2659 203.284 19.7971 204.05 19.4534C204.823 19.1096 205.671 18.9377 206.593 18.9377C208.054 18.9377 209.198 19.3049 210.026 20.0393C210.854 20.7659 211.284 21.7698 211.315 23.051V28.887C211.315 30.051 211.464 30.9768 211.761 31.6643V31.8518H209.487ZM205.89 30.1995C206.569 30.1995 207.214 30.0237 207.823 29.6721C208.432 29.3206 208.874 28.8635 209.147 28.301V25.6995H207.448C204.792 25.6995 203.464 26.4768 203.464 28.0315C203.464 28.7112 203.69 29.2424 204.143 29.6252C204.597 30.0081 205.179 30.1995 205.89 30.1995ZM217.069 31.8518H214.901V13.8518H217.069V31.8518ZM222.905 31.8518H220.737V13.8518H222.905V31.8518ZM231.647 32.0862C229.929 32.0862 228.53 31.5237 227.452 30.3987C226.374 29.2659 225.835 27.7542 225.835 25.8635V25.4651C225.835 24.2073 226.073 23.0862 226.55 22.1018C227.034 21.1096 227.706 20.3362 228.565 19.7815C229.432 19.219 230.37 18.9377 231.378 18.9377C233.026 18.9377 234.307 19.4807 235.222 20.5667C236.136 21.6526 236.593 23.2073 236.593 25.2307V26.1331H228.003C228.034 27.3831 228.397 28.3948 229.093 29.1682C229.796 29.9338 230.686 30.3167 231.765 30.3167C232.53 30.3167 233.179 30.1604 233.71 29.8479C234.241 29.5354 234.706 29.1213 235.104 28.6057L236.429 29.637C235.366 31.2698 233.772 32.0862 231.647 32.0862ZM231.378 20.719C230.503 20.719 229.768 21.0393 229.175 21.6799C228.581 22.3127 228.214 23.2034 228.073 24.3518H234.425V24.1877C234.362 23.0862 234.065 22.2346 233.534 21.6331C233.003 21.0237 232.284 20.719 231.378 20.719ZM245.241 21.1174C244.913 21.0627 244.557 21.0354 244.175 21.0354C242.753 21.0354 241.788 21.6409 241.28 22.8518V31.8518H239.112V19.1721H241.222L241.257 20.637C241.968 19.5042 242.975 18.9377 244.28 18.9377C244.702 18.9377 245.022 18.9924 245.241 19.1018V21.1174ZM251.604 28.676L254.557 19.1721H256.878L251.78 33.8088C250.991 35.9182 249.737 36.9729 248.018 36.9729L247.608 36.9377L246.8 36.7854V35.0276L247.386 35.0745C248.12 35.0745 248.69 34.926 249.097 34.6292C249.511 34.3323 249.85 33.7893 250.116 33.0002L250.597 31.7112L246.073 19.1721H248.44L251.604 28.676Z" fill="#FFFEFE"/>
</svg>
