<svg width="25" height="15" viewBox="0 0 25 15" fill="none" xmlns="http://www.w3.org/2000/svg">
<path d="M1.41805 1.6075L11.2063 6.64375C11.5351 6.8125 11.9606 6.8925 12.3887 6.8925C12.8167 6.8925 13.2422 6.8125 13.5711 6.64375L23.3593 1.6075C23.9975 1.27875 24.6004 0 23.4298 0H1.34888C0.178209 0 0.781163 1.27875 1.41805 1.6075ZM23.6555 4.36125L13.5711 9.395C13.1274 9.6175 12.8167 9.64375 12.3887 9.64375C11.9606 9.64375 11.65 9.6175 11.2063 9.395C10.7625 9.1725 1.89702 4.72125 1.17269 4.36C0.663704 4.105 0.668925 4.40375 0.668925 4.63375V13.75C0.668925 14.275 1.40761 15 1.97402 15H22.8555C23.4219 15 24.1606 14.275 24.1606 13.75V4.635C24.1606 4.405 24.1658 4.10625 23.6555 4.36125Z" fill="white"/>
</svg>
