<svg width="305" height="48" viewBox="0 0 305 48" fill="none" xmlns="http://www.w3.org/2000/svg">
<rect width="303.24" height="48" transform="translate(0.836243)" fill="#1F252A"/>
<path d="M88.9055 32H86.6437L78.0539 18.8516V32H75.7922V14.9375H78.0539L86.6672 28.1445V14.9375H88.9055V32ZM100.39 32C100.265 31.75 100.163 31.3047 100.085 30.6641C99.0773 31.7109 97.8742 32.2344 96.4758 32.2344C95.2258 32.2344 94.1984 31.8828 93.3937 31.1797C92.5969 30.4688 92.1984 29.5703 92.1984 28.4844C92.1984 27.1641 92.6984 26.1406 93.6984 25.4141C94.7062 24.6797 96.1203 24.3125 97.9406 24.3125H100.05V23.3164C100.05 22.5586 99.8234 21.957 99.3703 21.5117C98.9172 21.0586 98.2492 20.832 97.3664 20.832C96.593 20.832 95.9445 21.0273 95.4211 21.418C94.8976 21.8086 94.6359 22.2812 94.6359 22.8359H92.4562C92.4562 22.2031 92.6789 21.5938 93.1242 21.0078C93.5773 20.4141 94.1867 19.9453 94.9523 19.6016C95.7258 19.2578 96.5734 19.0859 97.4953 19.0859C98.9562 19.0859 100.101 19.4531 100.929 20.1875C101.757 20.9141 102.187 21.918 102.218 23.1992V29.0352C102.218 30.1992 102.366 31.125 102.663 31.8125V32H100.39ZM96.7922 30.3477C97.4719 30.3477 98.1164 30.1719 98.7258 29.8203C99.3351 29.4688 99.7766 29.0117 100.05 28.4492V25.8477H98.3508C95.6945 25.8477 94.3664 26.625 94.3664 28.1797C94.3664 28.8594 94.593 29.3906 95.0461 29.7734C95.4992 30.1562 96.0812 30.3477 96.7922 30.3477ZM108.558 16.25V19.3203H110.925V20.9961H108.558V28.8594C108.558 29.3672 108.663 29.75 108.874 30.0078C109.085 30.2578 109.445 30.3828 109.952 30.3828C110.202 30.3828 110.546 30.3359 110.984 30.2422V32C110.413 32.1562 109.859 32.2344 109.32 32.2344C108.351 32.2344 107.62 31.9414 107.128 31.3555C106.636 30.7695 106.39 29.9375 106.39 28.8594V20.9961H104.081V19.3203H106.39V16.25H108.558ZM121.296 30.7461C120.452 31.7383 119.214 32.2344 117.581 32.2344C116.23 32.2344 115.198 31.8438 114.487 31.0625C113.784 30.2734 113.429 29.1094 113.421 27.5703V19.3203H115.589V27.5117C115.589 29.4336 116.37 30.3945 117.933 30.3945C119.589 30.3945 120.691 29.7773 121.237 28.543V19.3203H123.405V32H121.343L121.296 30.7461ZM132.839 21.2656C132.511 21.2109 132.155 21.1836 131.773 21.1836C130.351 21.1836 129.386 21.7891 128.878 23V32H126.71V19.3203H128.82L128.855 20.7852C129.566 19.6523 130.573 19.0859 131.878 19.0859C132.3 19.0859 132.62 19.1406 132.839 19.25V21.2656ZM142.202 32C142.077 31.75 141.976 31.3047 141.898 30.6641C140.89 31.7109 139.687 32.2344 138.288 32.2344C137.038 32.2344 136.011 31.8828 135.206 31.1797C134.409 30.4688 134.011 29.5703 134.011 28.4844C134.011 27.1641 134.511 26.1406 135.511 25.4141C136.519 24.6797 137.933 24.3125 139.753 24.3125H141.862V23.3164C141.862 22.5586 141.636 21.957 141.183 21.5117C140.73 21.0586 140.062 20.832 139.179 20.832C138.405 20.832 137.757 21.0273 137.234 21.418C136.71 21.8086 136.448 22.2812 136.448 22.8359H134.269C134.269 22.2031 134.491 21.5938 134.937 21.0078C135.39 20.4141 135.999 19.9453 136.765 19.6016C137.538 19.2578 138.386 19.0859 139.308 19.0859C140.769 19.0859 141.913 19.4531 142.741 20.1875C143.57 20.9141 143.999 21.918 144.03 23.1992V29.0352C144.03 30.1992 144.179 31.125 144.476 31.8125V32H142.202ZM138.605 30.3477C139.284 30.3477 139.929 30.1719 140.538 29.8203C141.148 29.4688 141.589 29.0117 141.862 28.4492V25.8477H140.163C137.507 25.8477 136.179 26.625 136.179 28.1797C136.179 28.8594 136.405 29.3906 136.859 29.7734C137.312 30.1562 137.894 30.3477 138.605 30.3477ZM149.784 32H147.616V14H149.784V32ZM172.155 29.7617C171.577 30.5898 170.769 31.2109 169.73 31.625C168.698 32.0312 167.495 32.2344 166.12 32.2344C164.73 32.2344 163.495 31.9102 162.417 31.2617C161.339 30.6055 160.503 29.6758 159.909 28.4727C159.323 27.2695 159.023 25.875 159.007 24.2891V22.8008C159.007 20.2305 159.605 18.2383 160.8 16.8242C162.003 15.4102 163.691 14.7031 165.862 14.7031C167.644 14.7031 169.077 15.1602 170.163 16.0742C171.249 16.9805 171.913 18.2695 172.155 19.9414H169.905C169.484 17.6836 168.14 16.5547 165.874 16.5547C164.366 16.5547 163.222 17.0859 162.441 18.1484C161.667 19.2031 161.277 20.7344 161.269 22.7422V24.1367C161.269 26.0508 161.706 27.5742 162.581 28.707C163.456 29.832 164.64 30.3945 166.132 30.3945C166.976 30.3945 167.714 30.3008 168.347 30.1133C168.98 29.9258 169.503 29.6094 169.917 29.1641V25.332H165.968V23.5039H172.155V29.7617ZM183.405 32C183.28 31.75 183.179 31.3047 183.101 30.6641C182.093 31.7109 180.89 32.2344 179.491 32.2344C178.241 32.2344 177.214 31.8828 176.409 31.1797C175.612 30.4688 175.214 29.5703 175.214 28.4844C175.214 27.1641 175.714 26.1406 176.714 25.4141C177.722 24.6797 179.136 24.3125 180.956 24.3125H183.066V23.3164C183.066 22.5586 182.839 21.957 182.386 21.5117C181.933 21.0586 181.265 20.832 180.382 20.832C179.609 20.832 178.96 21.0273 178.437 21.418C177.913 21.8086 177.652 22.2812 177.652 22.8359H175.472C175.472 22.2031 175.695 21.5938 176.14 21.0078C176.593 20.4141 177.202 19.9453 177.968 19.6016C178.741 19.2578 179.589 19.0859 180.511 19.0859C181.972 19.0859 183.116 19.4531 183.945 20.1875C184.773 20.9141 185.202 21.918 185.234 23.1992V29.0352C185.234 30.1992 185.382 31.125 185.679 31.8125V32H183.405ZM179.808 30.3477C180.487 30.3477 181.132 30.1719 181.741 29.8203C182.351 29.4688 182.792 29.0117 183.066 28.4492V25.8477H181.366C178.71 25.8477 177.382 26.625 177.382 28.1797C177.382 28.8594 177.609 29.3906 178.062 29.7734C178.515 30.1562 179.097 30.3477 179.808 30.3477ZM190.987 32H188.82V14H190.987V32ZM196.823 32H194.655V14H196.823V32ZM205.566 32.2344C203.847 32.2344 202.448 31.6719 201.37 30.5469C200.292 29.4141 199.753 27.9023 199.753 26.0117V25.6133C199.753 24.3555 199.991 23.2344 200.468 22.25C200.952 21.2578 201.624 20.4844 202.484 19.9297C203.351 19.3672 204.288 19.0859 205.296 19.0859C206.945 19.0859 208.226 19.6289 209.14 20.7148C210.054 21.8008 210.511 23.3555 210.511 25.3789V26.2812H201.921C201.952 27.5312 202.316 28.543 203.011 29.3164C203.714 30.082 204.605 30.4648 205.683 30.4648C206.448 30.4648 207.097 30.3086 207.628 29.9961C208.159 29.6836 208.624 29.2695 209.023 28.7539L210.347 29.7852C209.284 31.418 207.691 32.2344 205.566 32.2344ZM205.296 20.8672C204.421 20.8672 203.687 21.1875 203.093 21.8281C202.499 22.4609 202.132 23.3516 201.991 24.5H208.343V24.3359C208.28 23.2344 207.984 22.3828 207.452 21.7812C206.921 21.1719 206.202 20.8672 205.296 20.8672ZM219.159 21.2656C218.831 21.2109 218.476 21.1836 218.093 21.1836C216.671 21.1836 215.706 21.7891 215.198 23V32H213.03V19.3203H215.14L215.175 20.7852C215.886 19.6523 216.894 19.0859 218.198 19.0859C218.62 19.0859 218.941 19.1406 219.159 19.25V21.2656ZM225.523 28.8242L228.476 19.3203H230.796L225.698 33.957C224.909 36.0664 223.655 37.1211 221.937 37.1211L221.527 37.0859L220.718 36.9336V35.1758L221.304 35.2227C222.038 35.2227 222.609 35.0742 223.015 34.7773C223.429 34.4805 223.769 33.9375 224.034 33.1484L224.515 31.8594L219.991 19.3203H222.359L225.523 28.8242Z" fill="#FFFEFE"/>
</svg>
