<svg width="304" height="48" viewBox="0 0 304 48" fill="none" xmlns="http://www.w3.org/2000/svg">
<rect width="303.24" height="47.7037" transform="translate(0.751099)" fill="#1F252A"/>
<path d="M132.074 23.8713C132.074 25.5432 131.793 27.0042 131.23 28.2542C130.668 29.4963 129.871 30.4456 128.84 31.1018C127.809 31.7581 126.605 32.0862 125.23 32.0862C123.887 32.0862 122.695 31.7581 121.656 31.1018C120.617 30.4377 119.809 29.4963 119.23 28.2776C118.66 27.051 118.367 25.6331 118.352 24.0237V22.7932C118.352 21.1526 118.637 19.7034 119.207 18.4456C119.777 17.1877 120.582 16.2268 121.621 15.5627C122.668 14.8909 123.863 14.5549 125.207 14.5549C126.574 14.5549 127.777 14.887 128.816 15.551C129.863 16.2073 130.668 17.1643 131.23 18.4221C131.793 19.6721 132.074 21.1292 132.074 22.7932V23.8713ZM129.836 22.7698C129.836 20.7463 129.43 19.1956 128.617 18.1174C127.805 17.0315 126.668 16.4885 125.207 16.4885C123.785 16.4885 122.664 17.0315 121.844 18.1174C121.031 19.1956 120.613 20.6956 120.59 22.6174V23.8713C120.59 25.8323 121 27.3752 121.82 28.5002C122.648 29.6174 123.785 30.176 125.23 30.176C126.684 30.176 127.809 29.6487 128.605 28.594C129.402 27.5315 129.812 26.012 129.836 24.0354V22.7698ZM138.051 16.1018V19.1721H140.418V20.8479H138.051V28.7112C138.051 29.219 138.156 29.6018 138.367 29.8596C138.578 30.1096 138.938 30.2346 139.445 30.2346C139.695 30.2346 140.039 30.1877 140.477 30.094V31.8518C139.906 32.0081 139.352 32.0862 138.812 32.0862C137.844 32.0862 137.113 31.7932 136.621 31.2073C136.129 30.6213 135.883 29.7893 135.883 28.7112V20.8479H133.574V19.1721H135.883V16.1018H138.051ZM145.129 20.7073C146.09 19.5276 147.34 18.9377 148.879 18.9377C151.559 18.9377 152.91 20.4495 152.934 23.4729V31.8518H150.766V23.4612C150.758 22.5471 150.547 21.8713 150.133 21.4338C149.727 20.9963 149.09 20.7776 148.223 20.7776C147.52 20.7776 146.902 20.9651 146.371 21.3401C145.84 21.7151 145.426 22.2073 145.129 22.8167V31.8518H142.961V13.8518H145.129V20.7073ZM161.441 32.0862C159.723 32.0862 158.324 31.5237 157.246 30.3987C156.168 29.2659 155.629 27.7542 155.629 25.8635V25.4651C155.629 24.2073 155.867 23.0862 156.344 22.1018C156.828 21.1096 157.5 20.3362 158.359 19.7815C159.227 19.219 160.164 18.9377 161.172 18.9377C162.82 18.9377 164.102 19.4807 165.016 20.5667C165.93 21.6526 166.387 23.2073 166.387 25.2307V26.1331H157.797C157.828 27.3831 158.191 28.3948 158.887 29.1682C159.59 29.9338 160.48 30.3167 161.559 30.3167C162.324 30.3167 162.973 30.1604 163.504 29.8479C164.035 29.5354 164.5 29.1213 164.898 28.6057L166.223 29.637C165.16 31.2698 163.566 32.0862 161.441 32.0862ZM161.172 20.719C160.297 20.719 159.562 21.0393 158.969 21.6799C158.375 22.3127 158.008 23.2034 157.867 24.3518H164.219V24.1877C164.156 23.0862 163.859 22.2346 163.328 21.6331C162.797 21.0237 162.078 20.719 161.172 20.719ZM175.035 21.1174C174.707 21.0627 174.352 21.0354 173.969 21.0354C172.547 21.0354 171.582 21.6409 171.074 22.8518V31.8518H168.906V19.1721H171.016L171.051 20.637C171.762 19.5042 172.77 18.9377 174.074 18.9377C174.496 18.9377 174.816 18.9924 175.035 19.1018V21.1174ZM184.422 28.4885C184.422 27.9026 184.199 27.4495 183.754 27.1292C183.316 26.801 182.547 26.5198 181.445 26.2854C180.352 26.051 179.48 25.7698 178.832 25.4417C178.191 25.1135 177.715 24.7229 177.402 24.2698C177.098 23.8167 176.945 23.2776 176.945 22.6526C176.945 21.6135 177.383 20.7346 178.258 20.0159C179.141 19.2971 180.266 18.9377 181.633 18.9377C183.07 18.9377 184.234 19.3088 185.125 20.051C186.023 20.7932 186.473 21.7424 186.473 22.8987H184.293C184.293 22.3049 184.039 21.7932 183.531 21.3635C183.031 20.9338 182.398 20.719 181.633 20.719C180.844 20.719 180.227 20.8909 179.781 21.2346C179.336 21.5784 179.113 22.0276 179.113 22.5823C179.113 23.1057 179.32 23.5002 179.734 23.7659C180.148 24.0315 180.895 24.2854 181.973 24.5276C183.059 24.7698 183.938 25.0588 184.609 25.3948C185.281 25.7307 185.777 26.137 186.098 26.6135C186.426 27.0823 186.59 27.6565 186.59 28.3362C186.59 29.469 186.137 30.3792 185.23 31.0667C184.324 31.7463 183.148 32.0862 181.703 32.0862C180.688 32.0862 179.789 31.9065 179.008 31.5471C178.227 31.1877 177.613 30.6877 177.168 30.0471C176.73 29.3987 176.512 28.6995 176.512 27.9495H178.68C178.719 28.676 179.008 29.2542 179.547 29.6838C180.094 30.1057 180.812 30.3167 181.703 30.3167C182.523 30.3167 183.18 30.1526 183.672 29.8245C184.172 29.4885 184.422 29.0432 184.422 28.4885Z" fill="#FFFEFE"/>
</svg>
