<svg width="22" height="21" viewBox="0 0 22 21" fill="none" xmlns="http://www.w3.org/2000/svg">
<path d="M12.6334 6.00002C15.1036 6.00002 16.1572 7.00915 16.1572 9.37502H18.5064C18.5064 5.7469 16.4215 3.75002 12.6334 3.75002V6.00002ZM16.6529 12.1234C16.4272 11.9269 16.1306 11.8221 15.8257 11.8312C15.5209 11.8402 15.2316 11.9623 15.019 12.1718L12.2082 14.9404C11.5317 14.8166 10.1715 14.4105 8.7714 13.0729C7.37129 11.7308 6.94727 10.4247 6.82159 9.78115L9.70989 7.0879C9.92885 6.88442 10.0566 6.60732 10.066 6.31526C10.0754 6.02319 9.96581 5.73907 9.7604 5.52303L5.42031 0.95215C5.2148 0.735426 4.92919 0.603967 4.62412 0.585692C4.31905 0.567417 4.01855 0.663765 3.78646 0.854275L1.23761 2.9479C1.03454 3.1431 0.91333 3.40291 0.896981 3.67802C0.879362 3.95927 0.543431 10.6215 5.93712 15.7898C10.6425 20.2954 16.5366 20.625 18.1599 20.625C18.3971 20.625 18.5428 20.6183 18.5815 20.616C18.8687 20.6006 19.1398 20.484 19.3427 20.2886L21.5274 17.8463C21.7264 17.6241 21.8272 17.3364 21.8084 17.0442C21.7895 16.752 21.6525 16.4784 21.4264 16.2814L16.6529 12.1234Z" fill="white"/>
</svg>
