<svg width="305" height="48" viewBox="0 0 305 48" fill="none" xmlns="http://www.w3.org/2000/svg">
<rect width="303.24" height="47.7037" transform="translate(0.918121)" fill="#1F252A"/>
<path d="M65.8897 24.2463C63.96 23.6917 62.5537 23.012 61.6709 22.2073C60.7959 21.3948 60.3584 20.3948 60.3584 19.2073C60.3584 17.8635 60.8936 16.7542 61.9639 15.8792C63.042 14.9963 64.4405 14.5549 66.1592 14.5549C67.3311 14.5549 68.3741 14.7815 69.2881 15.2346C70.21 15.6877 70.9209 16.3127 71.4209 17.1096C71.9287 17.9065 72.1826 18.7776 72.1826 19.7229H69.9209C69.9209 18.6917 69.5928 17.8831 68.9366 17.2971C68.2803 16.7034 67.3545 16.4065 66.1592 16.4065C65.0498 16.4065 64.1826 16.6526 63.5576 17.1448C62.9405 17.6292 62.6319 18.3049 62.6319 19.1721C62.6319 19.8674 62.9248 20.4573 63.5108 20.9417C64.1045 21.4182 65.1084 21.8557 66.5225 22.2542C67.9444 22.6526 69.0537 23.094 69.8506 23.5784C70.6553 24.0549 71.2491 24.6135 71.6319 25.2542C72.0225 25.8948 72.2178 26.6487 72.2178 27.5159C72.2178 28.8987 71.6787 30.0081 70.6006 30.844C69.5225 31.6721 68.0811 32.0862 66.2764 32.0862C65.1045 32.0862 64.0108 31.8635 62.9951 31.4182C61.9795 30.9651 61.1944 30.3479 60.6397 29.5667C60.0928 28.7854 59.8194 27.8987 59.8194 26.9065H62.0811C62.0811 27.9377 62.46 28.7542 63.2178 29.3557C63.9834 29.9495 65.003 30.2463 66.2764 30.2463C67.4639 30.2463 68.3741 30.0042 69.0069 29.5198C69.6397 29.0354 69.9561 28.3752 69.9561 27.5393C69.9561 26.7034 69.6631 26.0588 69.0772 25.6057C68.4912 25.1448 67.4287 24.6917 65.8897 24.2463ZM76.9405 20.7073C77.9014 19.5276 79.1514 18.9377 80.6905 18.9377C83.3701 18.9377 84.7217 20.4495 84.7451 23.4729V31.8518H82.5772V23.4612C82.5694 22.5471 82.3584 21.8713 81.9444 21.4338C81.5381 20.9963 80.9014 20.7776 80.0342 20.7776C79.3311 20.7776 78.7139 20.9651 78.1826 21.3401C77.6514 21.7151 77.2373 22.2073 76.9405 22.8167V31.8518H74.7725V13.8518H76.9405V20.7073ZM90.3467 31.8518H88.1787V19.1721H90.3467V31.8518ZM88.003 15.8088C88.003 15.4573 88.1084 15.1604 88.3194 14.9182C88.5381 14.676 88.8584 14.5549 89.2803 14.5549C89.7022 14.5549 90.0225 14.676 90.2412 14.9182C90.46 15.1604 90.5694 15.4573 90.5694 15.8088C90.5694 16.1604 90.46 16.4534 90.2412 16.6877C90.0225 16.9221 89.7022 17.0393 89.2803 17.0393C88.8584 17.0393 88.5381 16.9221 88.3194 16.6877C88.1084 16.4534 88.003 16.1604 88.003 15.8088ZM95.8662 19.1721L95.9248 20.5784C96.8545 19.4846 98.1084 18.9377 99.6866 18.9377C101.46 18.9377 102.667 19.6174 103.308 20.9768C103.73 20.3674 104.276 19.8752 104.948 19.5002C105.628 19.1252 106.429 18.9377 107.351 18.9377C110.132 18.9377 111.546 20.4104 111.593 23.3557V31.8518H109.425V23.4846C109.425 22.5784 109.218 21.9026 108.804 21.4573C108.39 21.0042 107.694 20.7776 106.718 20.7776C105.913 20.7776 105.245 21.0198 104.714 21.5042C104.183 21.9807 103.874 22.6252 103.788 23.4377V31.8518H101.608V23.5432C101.608 21.6995 100.706 20.7776 98.9014 20.7776C97.4795 20.7776 96.5069 21.3831 95.9834 22.594V31.8518H93.8155V19.1721H95.8662ZM116.913 19.1721L116.972 20.5784C117.901 19.4846 119.155 18.9377 120.733 18.9377C122.507 18.9377 123.714 19.6174 124.355 20.9768C124.776 20.3674 125.323 19.8752 125.995 19.5002C126.675 19.1252 127.476 18.9377 128.397 18.9377C131.179 18.9377 132.593 20.4104 132.64 23.3557V31.8518H130.472V23.4846C130.472 22.5784 130.265 21.9026 129.851 21.4573C129.437 21.0042 128.741 20.7776 127.765 20.7776C126.96 20.7776 126.292 21.0198 125.761 21.5042C125.23 21.9807 124.921 22.6252 124.835 23.4377V31.8518H122.655V23.5432C122.655 21.6995 121.753 20.7776 119.948 20.7776C118.526 20.7776 117.554 21.3831 117.03 22.594V31.8518H114.862V19.1721H116.913ZM141.183 32.0862C139.464 32.0862 138.065 31.5237 136.987 30.3987C135.909 29.2659 135.37 27.7542 135.37 25.8635V25.4651C135.37 24.2073 135.608 23.0862 136.085 22.1018C136.569 21.1096 137.241 20.3362 138.101 19.7815C138.968 19.219 139.905 18.9377 140.913 18.9377C142.562 18.9377 143.843 19.4807 144.757 20.5667C145.671 21.6526 146.128 23.2073 146.128 25.2307V26.1331H137.538C137.569 27.3831 137.933 28.3948 138.628 29.1682C139.331 29.9338 140.222 30.3167 141.3 30.3167C142.065 30.3167 142.714 30.1604 143.245 29.8479C143.776 29.5354 144.241 29.1213 144.64 28.6057L145.964 29.637C144.901 31.2698 143.308 32.0862 141.183 32.0862ZM140.913 20.719C140.038 20.719 139.304 21.0393 138.71 21.6799C138.116 22.3127 137.749 23.2034 137.608 24.3518H143.96V24.1877C143.897 23.0862 143.601 22.2346 143.069 21.6331C142.538 21.0237 141.819 20.719 140.913 20.719ZM154.776 21.1174C154.448 21.0627 154.093 21.0354 153.71 21.0354C152.288 21.0354 151.323 21.6409 150.815 22.8518V31.8518H148.647V19.1721H150.757L150.792 20.637C151.503 19.5042 152.511 18.9377 153.815 18.9377C154.237 18.9377 154.558 18.9924 154.776 19.1018V21.1174ZM161.14 28.676L164.093 19.1721H166.413L161.315 33.8088C160.526 35.9182 159.272 36.9729 157.554 36.9729L157.144 36.9377L156.335 36.7854V35.0276L156.921 35.0745C157.655 35.0745 158.226 34.926 158.632 34.6292C159.046 34.3323 159.386 33.7893 159.651 33.0002L160.132 31.7112L155.608 19.1721H157.976L161.14 28.676ZM187.249 29.6135C186.671 30.4417 185.862 31.0627 184.823 31.4768C183.792 31.8831 182.589 32.0862 181.214 32.0862C179.823 32.0862 178.589 31.762 177.511 31.1135C176.433 30.4573 175.597 29.5276 175.003 28.3245C174.417 27.1213 174.116 25.7268 174.101 24.1409V22.6526C174.101 20.0823 174.698 18.0901 175.894 16.676C177.097 15.262 178.784 14.5549 180.956 14.5549C182.737 14.5549 184.171 15.012 185.257 15.926C186.343 16.8323 187.007 18.1213 187.249 19.7932H184.999C184.577 17.5354 183.233 16.4065 180.968 16.4065C179.46 16.4065 178.315 16.9377 177.534 18.0002C176.761 19.0549 176.37 20.5862 176.362 22.594V23.9885C176.362 25.9026 176.8 27.426 177.675 28.5588C178.55 29.6838 179.733 30.2463 181.226 30.2463C182.069 30.2463 182.808 30.1526 183.44 29.9651C184.073 29.7776 184.597 29.4612 185.011 29.0159V25.1838H181.062V23.3557H187.249V29.6135ZM198.499 31.8518C198.374 31.6018 198.272 31.1565 198.194 30.5159C197.187 31.5627 195.983 32.0862 194.585 32.0862C193.335 32.0862 192.308 31.7346 191.503 31.0315C190.706 30.3206 190.308 29.4221 190.308 28.3362C190.308 27.0159 190.808 25.9924 191.808 25.2659C192.815 24.5315 194.23 24.1643 196.05 24.1643H198.159V23.1682C198.159 22.4104 197.933 21.8088 197.48 21.3635C197.026 20.9104 196.358 20.6838 195.476 20.6838C194.702 20.6838 194.054 20.8792 193.53 21.2698C193.007 21.6604 192.745 22.1331 192.745 22.6877H190.565C190.565 22.0549 190.788 21.4456 191.233 20.8596C191.687 20.2659 192.296 19.7971 193.062 19.4534C193.835 19.1096 194.683 18.9377 195.605 18.9377C197.065 18.9377 198.21 19.3049 199.038 20.0393C199.866 20.7659 200.296 21.7698 200.327 23.051V28.887C200.327 30.051 200.476 30.9768 200.772 31.6643V31.8518H198.499ZM194.901 30.1995C195.581 30.1995 196.226 30.0237 196.835 29.6721C197.444 29.3206 197.886 28.8635 198.159 28.301V25.6995H196.46C193.804 25.6995 192.476 26.4768 192.476 28.0315C192.476 28.7112 192.702 29.2424 193.155 29.6252C193.608 30.0081 194.19 30.1995 194.901 30.1995ZM206.081 31.8518H203.913V13.8518H206.081V31.8518ZM211.917 31.8518H209.749V13.8518H211.917V31.8518ZM220.659 32.0862C218.94 32.0862 217.542 31.5237 216.464 30.3987C215.386 29.2659 214.847 27.7542 214.847 25.8635V25.4651C214.847 24.2073 215.085 23.0862 215.562 22.1018C216.046 21.1096 216.718 20.3362 217.577 19.7815C218.444 19.219 219.382 18.9377 220.39 18.9377C222.038 18.9377 223.319 19.4807 224.233 20.5667C225.147 21.6526 225.605 23.2073 225.605 25.2307V26.1331H217.015C217.046 27.3831 217.409 28.3948 218.105 29.1682C218.808 29.9338 219.698 30.3167 220.776 30.3167C221.542 30.3167 222.19 30.1604 222.722 29.8479C223.253 29.5354 223.718 29.1213 224.116 28.6057L225.44 29.637C224.378 31.2698 222.784 32.0862 220.659 32.0862ZM220.39 20.719C219.515 20.719 218.78 21.0393 218.187 21.6799C217.593 22.3127 217.226 23.2034 217.085 24.3518H223.437V24.1877C223.374 23.0862 223.077 22.2346 222.546 21.6331C222.015 21.0237 221.296 20.719 220.39 20.719ZM234.253 21.1174C233.925 21.0627 233.569 21.0354 233.187 21.0354C231.765 21.0354 230.8 21.6409 230.292 22.8518V31.8518H228.124V19.1721H230.233L230.269 20.637C230.98 19.5042 231.987 18.9377 233.292 18.9377C233.714 18.9377 234.034 18.9924 234.253 19.1018V21.1174ZM240.616 28.676L243.569 19.1721H245.89L240.792 33.8088C240.003 35.9182 238.749 36.9729 237.03 36.9729L236.62 36.9377L235.812 36.7854V35.0276L236.397 35.0745C237.132 35.0745 237.702 34.926 238.108 34.6292C238.522 34.3323 238.862 33.7893 239.128 33.0002L239.608 31.7112L235.085 19.1721H237.452L240.616 28.676Z" fill="#FFFEFE"/>
</svg>
